<?xml version="1.0" encoding="utf-8"?>
<!-- Generator: Adobe Illustrator 23.0.2, SVG Export Plug-In . SVG Version: 6.00 Build 0)  -->
<svg version="1.1" id="Camada_1" xmlns="http://www.w3.org/2000/svg" xmlns:xlink="http://www.w3.org/1999/xlink" x="0px" y="0px"
	 viewBox="0 0 595.3 841.9" style="enable-background:new 0 0 595.3 841.9;" xml:space="preserve">
<style type="text/css">
	.st0{fill:#9BCB38;}
	.st1{fill:#63B752;}
	.st2{fill:#D9E03E;}
</style>
<path class="st0" d="M164.3,310.8c124.7-46.6,130.4-48.5,130.4-48.5h6.4h1.8l3.8,0.9L437,310.8l1.1,0.5l1.5,1.8l1,2.7v2.4l-0.9,2.4
	l-134.3,62l-4.7,1.6h-5.4l-4.6-0.8l-5.1-2.1L159.7,321l-2.3-1.5v-3.8L164.3,310.8z"/>
<path class="st1" d="M307.3,399.2v173.4l3,4.9l3.8,2.3h6l121.6-77.4l3.5-5.3l-0.2-150.4c0-0.1,0-0.3-0.1-0.4l-1.1-3.6l-2.1-1.9h-3.7
	L307.3,399.2z"/>
<path class="st2" d="M157.4,338.8l132,59.9v172.8l-2.2,4.5l-4.5,3.7h-3.4h-6.8l-123.2-82.1v-2.3V343.8c0-1.6,0-3.3,0-4.9
	c1.1-0.7,2.3-1.3,3.4-2C154.3,337.5,155.9,338.2,157.4,338.8z"/>
</svg>
