<?xml version="1.0" encoding="utf-8"?>
<!-- Generator: Adobe Illustrator 23.0.2, SVG Export Plug-In . SVG Version: 6.00 Build 0)  -->
<svg version="1.1" id="Capa_1" xmlns="http://www.w3.org/2000/svg" xmlns:xlink="http://www.w3.org/1999/xlink" x="0px" y="0px"
	 viewBox="0 0 512 512" style="enable-background:new 0 0 512 512;" xml:space="preserve">
<style type="text/css">
	.st0{fill:#0C3E51;}
	.st1{fill:#FDFDFD;}
	.st2{fill:#B77C06;}
</style>
<path class="st0" d="M512,255.3c0.1,34.3-6.6,67.1-18.8,97.1c-38,93.4-129.5,159.3-236.5,159.6c-106,0.3-197.1-63.8-236.2-155.5
	C7.4,325.9,0.1,292.2,0,256.7c-0.1-28.3,4.4-55.5,12.8-80.9C46.4,74,142.1,0.3,255.3,0c106.5-0.3,198,64.5,236.8,156.9
	C504.8,187.2,511.9,220.4,512,255.3z"/>
<path class="st1" d="M492.1,156.9c-1.7-0.4-3.4-0.7-5.2-1c-12.1-1.6-24.3-0.1-36.4,0.1c-6.5,0.1-13,1.4-18.6,4.7
	c-5.6,3.3-11.4,3.8-17.6,3.7c-10.3-0.2-19.9,2.6-28.5,8.3c-2.6,1.8-4.2,1.5-6.6-0.3c-9.5-6.7-20.2-10.1-31.8-9.3
	c-20.2,1.4-40.5,1.3-60.8,2.1c-2.6,0.1-4.5-0.6-6.5-2.2c-6.3-5-13.6-8.1-21.5-9.9c-9.6-2.1-19.1-0.2-28.6,0.9
	c-13.6,1.6-26.8,4-37.5,13.5c-1.1,1-2.4,1-3.8,0.8c-10.9-1.5-21.9-1.3-32.8-0.5c-14.6,1.1-29.1,2.8-41,12.7c-2.5,2-3.1-0.4-4.1-1.6
	c-15.6-18.4-39.3-24.3-61.5-15.2c-2,0.8-4,1.3-6.1,1.4c-11.6,1.1-21.7,4.5-30.3,10.4C4.4,201.3-0.1,228.5,0,256.7
	c0.1,35.4,7.4,69.2,20.5,99.8c12.5,2.8,26.1,1.1,38.6-6.1c5.7-3.3,11.8-4.1,18.6-0.6c20.9,10.8,42.9,11.7,64.5,3.4
	c9.4-3.6,18.9-5.2,28.6-7c4.3-0.8,8-0.1,12.1,1.4c24.5,9.4,46.8,5.5,66.6-11.8c2.6-2.3,4.5-5,8.7-3.5c3.3,1.1,7,0.1,10.1,2.9
	c6.9,6.1,15,10.4,24.1,11.4c17.6,1.8,35.4,1.2,53-1.2c1.8-0.2,3.4-0.5,5.2,0.2c17.7,7.1,35.6,6.7,54,2.9c6.4-1.4,13.4-1.5,19.8,2.7
	c12.3,8.1,26,10,40.1,6.1c7-1.9,14.1-2.9,21.2-3.6c2.6-0.3,5.1-0.7,7.5-1.3c12.2-30,18.9-62.7,18.8-97.1
	C511.9,220.4,504.8,187.2,492.1,156.9z"/>
<path class="st2" d="M9.3,287.6c0-5.9-0.1-11.7,0-17.6c0-3.4,0.6-6.8,2.6-9.4c2.7-3.6,2.6-7.2,1.9-11.3c-1.7-11.2-0.2-22.2,3.6-32.8
	c5.4-14.8,18-22.7,33.7-21.7c2.2,0.2,3.9-0.2,5.8-1.5c7.7-5.1,15.8-5.5,23.9-1.2c8.1,4.3,11.9,11.5,12.3,20.6
	c0.1,2.8-1.5,6.5,0.4,8.2c1.7,1.5,5-1.5,7.6-1.1c9.2,1.3,16.4-3.7,24.1-7.2c1.2-0.5,1.9-1.4,2.5-2.4c4.1-6.7,10.1-10.5,17.9-11.4
	c17.1-2.1,34.1-3.4,51,1.2c2.3,0.6,4.8,2.4,6.7,1.9c1.4-0.4,1.9-3.8,3-5.7c4-6.8,10.2-10.4,17.9-11.5c6.7-0.9,13.4-1.9,20.1-2.8
	c10.9-1.4,19.9,3.4,25,13.7c1.3,2.6,2.1,3.8,5.1,1.8c3.3-2.2,7.3-2.5,11.3-2.7c21-0.7,42-0.6,63-2.1c10.1-0.7,19.1,6,22.5,15.5
	c1.4,4,7.2,5.9,10.5,3.2c3.4-2.8,7-5.1,11.4-6c1.5-0.3,2.1-1.6,3-2.6c4.8-5.8,10.9-8.7,18.4-8.8c2.9,0,5.7,0,8.6,0
	c6.8,0,13.6,0.9,19.1-5.1c2.7-2.9,7.3-3.3,11.4-3.4c8.7-0.2,17.4-0.5,26.1-0.6c10.6,0,19.5,6.4,22.7,16.1c3.2,9.7-0.3,20-9,26.2
	c-2,1.4-2.6,2.8-2.5,5.2c0.2,14.7,0.2,29.4,0.2,44.2c0,2.4,0.6,4,2.8,5.5c8.2,5.8,11.7,15.2,9.3,24.5c-2.4,9.5-9.6,16.1-19.6,17.4
	c-9.2,1.1-18.4,2.2-27.4,4.8c-8.3,2.3-15.8-0.8-21.3-7.4c-1.8-2.1-3.5-2.7-6.1-2.8c-7.9-0.2-15.9,1.1-23.7-1.8
	c-1.2-0.5-2.3,0.5-3.4,0.9c-17.6,6.3-34.4,6.1-49.9-5.7c-1.7-1.3-2.6-1.3-4.1,0.1c-4.4,3.7-9.6,5.2-15.4,5.2
	c-9.5,0.1-18.9,0.5-28.4,0.6c-11.3,0.2-19.4-5.1-23.4-15.5c-1.1-2.7-1.9-2.5-4.1-1.5c-8.5,4-16.6,3.2-24.2-2.3
	c-3.6-2.6-12.5-0.2-14.3,3.8c-9.2,20.9-33.6,27.1-51.9,13c-1.5-1.1-2.6-1.2-4.4-0.9c-9.8,1.7-19.5,4-29.4,4.3
	c-6,0.2-10.7,1.7-15.5,4.8c-13.3,8.2-42.7,8-56.1-8.3c-1.5-1.9-2.8-2-4.9-0.9c-7,3.8-14.6,5.4-22.6,4.9c-1.9-0.1-3.1,0.5-4.3,1.8
	c-7.4,7.4-16.1,9.3-25.6,5.4c-9.6-3.9-14.1-11.8-14.4-22c-0.1-5.6-0.1-11.1-0.1-16.7C8.9,287.6,9.1,287.6,9.3,287.6z"/>
<g>
	<path class="st1" d="M422.4,256.4c0-9.8-0.2-19.5,0-29.3c0.1-3.9-1.2-5.1-4.8-4.6c-1.5,0.2-3,0.1-4.5-0.2c-2.8-0.5-4.2-2.4-4.2-5.1
		c0.1-2.7,1.7-4.8,4.4-4.9c9.3-0.2,18.6-0.2,27.9-0.1c2.7,0,4.3,2,4.4,4.8c0.1,3-1.5,4.8-4.4,5.3c-0.1,0-0.3,0-0.4,0.1
		c-2.6,0.5-6.2-1.3-7.6,1.1c-1.3,2.2-0.5,5.5-0.5,8.4c0,6.2,0.1,12.3-0.1,18.5c-0.1,2.8,0.7,3.7,3.6,3.2c7.5-1.4,15.1-2.7,22.6-3.9
		c2.7-0.4,3.7-1.4,3.6-4.3c-0.3-9.3-0.4-18.6-0.3-27.9c0-3.1-1.1-3.9-3.9-3.6c-1.6,0.2-3.3,0.2-4.9,0c-3-0.3-4.7-2.2-4.7-5.1
		c0-2.6,1.5-4.8,4.3-4.9c9.1-0.4,18.3-0.6,27.5-0.7c2.9,0,4.7,2,4.8,5c0.1,3-1.7,4.5-4.6,5.2c-2.6,0.7-6.4-1.3-7.8,1.5
		c-1.1,2.3-0.3,5.6-0.3,8.4c0.2,22.7,0.4,45.3,0.4,68c0,3.8,0.5,6,5.1,4.8c2.5-0.7,5.2-0.3,6.8,2.3c2.2,3.5,0,7.3-4.7,8
		c-5.5,0.7-11,1.3-16.5,1.9c-3.3,0.4-6.4,1.4-9.5,2.5c-2.5,0.9-4.9,0.7-6.2-1.9c-1.3-2.6-0.6-5,1.8-6.8c2.9-2.2,6.3-2.9,9.7-3.3
		c2.9-0.4,3.6-1.6,3.5-4.4c-0.2-10.4-0.3-20.7-0.2-31.1c0-3-0.8-4-3.9-3.4c-7.4,1.4-14.8,2.6-22.2,3.8c-2.8,0.4-4.1,1.4-4,4.6
		c0.3,6.1,0.2,12.3,0,18.5c-0.1,3.1,1.2,3.9,3.9,3.8c1.8-0.1,3.6-0.1,5.4,0.1c2.8,0.3,4.4,2.2,4.4,4.9c0,2.9-1.6,5.1-4.6,5.1
		c-9.5,0.1-18.9,0-28.4-0.3c-2.8-0.1-4.6-2.1-4.6-5.1c0-3.1,1.9-4.6,4.7-5.1c0.3-0.1,0.6,0,0.9-0.1c7.9-0.6,7.9-0.6,7.9-8.4
		C422.4,273.2,422.3,264.8,422.4,256.4C422.3,256.4,422.4,256.4,422.4,256.4z"/>
	<path class="st1" d="M166.8,215.1c8.5,0,14.8,0.2,21,1.6c6.7,1.5,13.5,3.6,15.9,11c2.5,7.6-1.1,14.1-6.2,19.2
		c-3.2,3.3-3.4,5.2-1.2,9.1c3.6,6.4,3.7,13.8,4.1,21c0.2,4.2,0.5,8.4,1.4,12.5c0.5,2.6,1.8,4.9,4.9,5.1c2.9,0.2,4.2-1.8,5.2-4.1
		c0.1-0.1,0.1-0.3,0.2-0.4c2.4-5.5,4.6-7.1,7.9-5.5c3.2,1.5,3.7,4.5,1.5,9.8c-3.1,7.5-8.7,11.1-16,10.5c-7.2-0.7-12-5.4-13.8-13.3
		c-1.8-8.1-1.1-16.5-2.7-24.6c-0.4-2-1-4.1-1.7-6c-1.4-4.1-4.4-5.4-8.6-4.4c-12.1,2.8-12.1,2.8-11.9,15.2c0.1,4.4,0.3,8.7,0.1,13.1
		c-0.1,3.1,1.2,3.6,3.7,3c1.3-0.3,2.7-0.6,4-0.6c2.7,0.1,4.7,1.3,5.2,4.1c0.5,2.9-0.6,5.4-3.5,5.9c-8.6,1.5-17.1,2.9-25.8,3.9
		c-2.8,0.3-4.8-1.6-5.1-4.6c-0.3-3,1.4-4.7,4.2-5.5c6.9-2,6.9-2,6.9-9c0-6.2-0.1-12.3-0.1-18.5c0-2-0.4-3-2.6-3.1
		c-3.1-0.2-5-2.1-4.8-5.3c0.1-3,2-4.8,4.9-4.8c2.4,0,2.5-1.3,2.5-3.1c-0.1-5.9-0.2-11.7-0.1-17.6c0-2.4-0.7-3.3-3.1-2.8
		c-1.2,0.3-2.4,0.4-3.6,0.6c-3.5,0.5-6.5-0.3-7-4.3c-0.5-4.1,2.2-5.6,5.7-6C155.2,216.1,162.1,215.5,166.8,215.1z M166.6,235.6
		C166.6,235.6,166.6,235.6,166.6,235.6c0.1,3,0.2,6,0.1,9c-0.1,2.3,1,3,3,2.4c4.5-1.3,8.9-2.8,13.4-3.9c5.1-1.3,8.1-4.9,10.3-9.3
		c1.6-3.1,0.6-5.2-2.4-6.5c-4.1-1.8-8.4-2.1-12.7-2.5c-11.6-1-11.6-1-11.6,10.4C166.6,235.3,166.6,235.5,166.6,235.6z"/>
	<path class="st1" d="M64.6,220.7c0-2.9-0.1-5.1,0-7.3c0.1-3.4,1.5-6,5.3-5.9c3.8,0.1,5.1,2.7,5,6.1c-0.4,10.1-0.8,20.1-1.2,30.2
		c-0.1,3.1-1.5,5.3-4.8,5.4c-3.5,0.2-5.2-1.9-5.5-5.2c-0.6-7.4-3.4-13.6-9.2-18.4c-5.5-4.6-10.1-3.3-11.4,3.6
		c-1,5.4-1.9,11-1.2,16.6c0.5,4.6,3,7.3,7.7,8.1c5,0.8,10.1,1.7,14.9,3.4c12.5,4.5,18.5,13.7,16.1,24.6c-2.6,11.7-14.9,20.5-27,19.2
		c-4.5-0.5-8.9-1.5-12.8-3.8c-3.5-2-4-0.7-3.7,2.6c0.2,1.8,0.2,3.6,0.1,5.4c-0.2,3-1.9,4.7-4.9,4.8c-3,0-5-1.7-5.1-4.6
		c-0.6-11.6-0.1-23.1,0.5-34.7c0.1-3,2.1-4.7,5.1-4.6c3.4,0.1,5.1,2.3,5,5.7c-0.2,7.6,3.2,13.2,9.8,17c6.7,3.9,15.9,2.2,20.7-4
		c4.3-5.6,3.1-12.1-3-15.7c-4.5-2.6-9.5-3.6-14.6-4.4c-13.6-2.3-19.2-8.8-19.2-22.7c0-5.6,0.7-11.1,2.2-16.5
		c3.4-12.4,14.7-16.5,25.3-9.3C60.5,217.4,62.1,218.8,64.6,220.7z"/>
	<path class="st1" d="M227.7,280.1c-4.2-0.2-8.4-0.4-12.6-0.7c-3.4-0.2-5.4-2.1-5.3-5.4c0.2-3.1,2.3-4.8,5.5-4.7
		c3.8,0.1,7.5,0.1,11.2,0.4c2.3,0.1,3.4-0.4,3.9-3c3.3-17.4,6.8-34.7,10.3-52c0.6-2.9-0.5-3.4-3-3c-3.4,0.6-6.8,1-10.2,1.5
		c-3.3,0.4-5.8-0.7-6.4-4.1c-0.6-3.7,1.5-5.6,5-6.1c6.1-0.9,12.2-1.7,18.3-2.6c5.8-0.8,7.2,0,9.6,5.6c7.7,18.5,15.5,37,23,55.7
		c1.5,3.6,2.8,5.3,6.6,2.7c1.2-0.8,2.7-1.3,4.1-1.8c3-1,5.5-0.1,6.6,2.9c1.1,3,0,5.3-2.9,6.6c-3.6,1.6-7.2,2.9-10.8,4.5
		c-3.9,1.8-7.8,3.7-10.9,6.9c-2.2,2.3-4.9,2.4-7.2,0.2c-2.5-2.4-2.1-5.1,0.1-7.6c0.7-0.8,1.6-1.3,2.3-2.1c1.3-1.5,4.8-1.5,4.2-4
		c-0.9-3.7-2.7-7.3-4.4-10.7c-0.5-1.1-1.9-0.2-2.9-0.1c-5.8,0.9-11.5,2-17.3,2.9c-2,0.3-3.6,0.7-3.4,3.1c0.2,2-2.4,4.6,1.6,5.8
		c2.4,0.7,3.1,3.1,2.5,5.6c-0.6,2.4-2.3,3.9-4.8,3.9c-4.2,0.1-8.4,0-12.6,0C227.7,280.4,227.7,280.2,227.7,280.1z M250.2,225.5
		c-0.3,0-0.6,0.1-0.9,0.1c-1.7,8.5-3.4,17-5.1,25.5c-0.2,1.2-1.6,3.3,1.4,2.9c4.3-0.6,8.5-1.5,12.8-2.2c1.4-0.2,2.2-0.7,1.5-2.3
		C256.7,241.4,253.5,233.4,250.2,225.5z"/>
	<path class="st1" d="M317.3,212.6c9.9-0.5,19.8-1.1,29.7-1.6c5.4-0.3,7.5,1.6,7.3,7c-0.2,5.7-0.5,11.4-0.6,17.1
		c-0.1,3.4-1.6,5.6-5,5.8c-3.5,0.1-5-2.3-5.1-5.5c-0.1-3.6-0.2-7.2,0-10.8c0.2-2.5-0.7-3-3.1-2.9c-4.9,0.4-9.9,0.6-14.8,0.7
		c-2.5,0-3.4,0.9-3.3,3.4c0.2,20.1,0.3,40.2,0.4,60.3c0,2.4,0.9,3.1,3.2,2.9c2.4-0.2,4.8-0.2,7.2,0c3,0.2,4.7,2,4.7,5
		c0,3-1.7,4.9-4.7,5c-10.4,0.3-20.7,0.6-31.1,0.7c-3.1,0-5.1-1.8-5.2-5c-0.1-3.3,2-4.8,5-5.3c0.6-0.1,1.2-0.1,1.8-0.1
		c8.7-0.3,8.7-0.3,8.6-9.2c-0.1-17.6-0.3-35.1-0.1-52.7c0-3.9-1.1-4.9-4.8-4.5c-4.5,0.4-9,0.4-13.5,0.3c-2.3,0-3.2,0.6-2.7,3.1
		c0.9,5,1.5,10.1,2.3,15.1c0.6,3.5-0.4,6.2-4,6.8c-3.6,0.6-5.5-1.7-6.1-5.1c-1.2-7.6-2.5-15.1-3.6-22.7c-0.8-5.1,1-7.3,6.3-7.4
		c10.4-0.2,20.7-0.1,31.1-0.1C317.3,212.8,317.3,212.7,317.3,212.6z"/>
	<path class="st1" d="M392.8,236.9c0-3.3-0.1-5.8,0-8.2c0.1-3.3,1.7-5.6,5.2-5.5c3.5,0,5.1,2.3,5.1,5.6c0.1,6.9,0,13.8,0.1,20.7
		c0,2.7-1.1,4.7-3.6,5.6c-2.7,0.9-4.7-0.3-6.2-2.4c-3.7-5.3-8.4-9.4-14.8-11.2c-6.6-1.8-10.2-0.2-11.9,6.4
		c-3,11.5-2.6,23.2-1.2,34.9c0.7,5.8,4.9,9.1,10.7,10c2.1,0.3,4.2,0.3,6.3,0.3c8.9-0.1,13.8-4.7,14.6-13.6c0.2-2.1,0-4.2,0.1-6.3
		c0-3.2,1.7-5.2,4.8-5.4c2.9-0.2,4.9,1.4,5.3,4.4c2.3,17.7-8,31.7-24.7,31.3c-15.5-0.4-25.1-5.8-27.1-18.8c-2-13.3-2.4-27,1.5-40.2
		c3.5-11.8,12.2-16.3,24.1-13.1C385,232.5,388.6,234.2,392.8,236.9z"/>
	<path class="st1" d="M125.6,243.9c0-3.4-0.1-6.1,0-8.7c0.1-3,1.9-4.8,4.8-4.9c3.2-0.1,5.2,1.7,5.2,4.9c0.2,7.4,0.1,14.7,0.1,22.1
		c0,2.6-1.3,4.3-3.7,5c-2.5,0.8-4.4-0.3-5.8-2.4c-3.7-5.1-8-9.2-14.3-11.1c-7.4-2.2-10.8-0.7-12.7,6.9c-2.9,11.2-2.1,22.7-1.1,34
		c0.5,5.6,4.7,9.2,10.5,10.2c3.6,0.6,7.2,0.6,10.8,0c5.1-0.8,8.8-5,10-10.9c0.7-3.4,0.4-6.9,0.5-10.3c0.1-2.8,1.8-4.5,4.5-4.8
		c2.7-0.3,4.6,1.1,5.5,3.7c3.4,10.3-2.8,26.2-12.9,30.5c-16.6,6.9-39.5,2-39.7-23.3c-0.1-8.7-0.5-17.4,0.7-26.1
		c2.8-19.7,16.2-26.4,33.7-16.9C122.7,242.3,123.8,242.9,125.6,243.9z"/>
</g>
</svg>
